<svg width="512" height="512" viewBox="0 0 512 512" fill="none" xmlns="http://www.w3.org/2000/svg">
<path d="M479 216.732C479 255.29 470.302 290.397 452.907 322.055C435.917 353.712 412.049 379.282 381.305 398.763C350.965 417.839 316.579 429 278.148 432.247V512H233.852V432.247C195.421 429 160.833 417.636 130.088 398.155C99.7483 378.673 75.8807 353.306 58.4857 322.055C41.4952 290.397 33 255.29 33 216.732C33 175.74 42.5066 138.806 61.5197 105.931C80.9374 73.0559 107.637 47.2834 141.618 28.6135C176.003 9.53785 214.232 0 256.303 0C298.375 0 336.199 9.33492 369.776 28.0048C403.756 46.6746 430.456 72.65 449.873 105.931C469.291 138.806 479 175.74 479 216.732ZM276.935 392.067C307.275 389.226 334.379 379.891 358.246 364.062C382.114 347.827 400.722 326.925 414.072 301.356C427.422 275.786 434.097 247.578 434.097 216.732C434.097 183.451 426.41 153.417 411.038 126.63C395.666 99.8431 374.428 78.738 347.324 63.3151C320.22 47.8922 289.88 40.1807 256.303 40.1807C222.727 40.1807 192.185 47.8922 164.676 63.3151C137.572 78.738 116.132 99.8431 100.355 126.63C84.9828 153.417 77.2966 183.451 77.2966 216.732C77.2966 247.578 83.9714 275.786 97.3211 301.356C111.075 326.925 129.886 347.624 153.754 363.453C177.621 379.282 204.725 388.82 235.065 392.067V286.744H276.935V392.067Z" fill="black"/>
</svg>
