<svg width="25" height="25" viewBox="0 0 25 25" fill="none" xmlns="http://www.w3.org/2000/svg">
<path d="M24.0282 22.8906L18.6469 17.5094C24.2469 11.0453 19.5383 0.720317 10.9086 0.75313C8.21126 0.756022 5.62512 1.82845 3.71728 3.73527C1.80944 5.64208 0.735621 8.22764 0.731279 10.925C0.698467 19.5602 11.0235 24.2688 17.4875 18.6688L22.8907 24.0281C23.0484 24.1332 23.2378 24.1805 23.4264 24.1618C23.6151 24.143 23.7915 24.0596 23.9255 23.9255C24.0596 23.7914 24.1431 23.6151 24.1618 23.4264C24.1805 23.2377 24.1333 23.0484 24.0282 22.8906ZM2.3719 10.9031C2.3748 8.64044 3.27531 6.47134 4.87578 4.87189C6.47626 3.27244 8.64594 2.37333 10.9086 2.37188C22.2235 2.84219 22.2235 18.9695 10.9086 19.4398C8.64499 19.4384 6.47448 18.5385 4.87385 16.9379C3.27322 15.3373 2.37335 13.1668 2.3719 10.9031Z" fill="#30525B"/>
</svg>
