<svg width="49" height="49" viewBox="0 0 49 49" fill="none" xmlns="http://www.w3.org/2000/svg">
<path d="M37.8845 48.9998C37.3023 48.9998 36.7229 48.813 36.2243 48.441L24.5003 39.653L12.7764 48.441C11.7776 49.1881 10.4373 49.1881 9.44437 48.4289C8.4514 47.6773 8.03346 46.3426 8.40528 45.124L12.7778 30.3739L1.15905 21.8164C0.171849 21.0557 -0.238886 19.718 0.138702 18.4979C0.519172 17.2808 1.60294 16.4538 2.82793 16.4447L17.2181 16.4222L21.7996 2.03808C22.1858 0.81945 23.2739 0 24.5003 0C25.7268 0 26.8148 0.820957 27.2025 2.03808L31.7062 16.4222L46.1698 16.4447C47.3991 16.4538 48.4844 17.2823 48.8605 18.4979C49.2395 19.718 48.8288 21.0557 47.8401 21.8164L36.2214 30.3739L40.5939 45.124C40.9686 46.3426 40.5464 47.6773 39.5563 48.4289C39.0562 48.8115 38.4711 48.9998 37.8845 48.9998Z" fill="#FFAC33"/>
</svg>
